<svg version="1.1" id="Layer_1" xmlns="http://www.w3.org/2000/svg" xmlns:xlink="http://www.w3.org/1999/xlink" x="0px" y="0px"
	 width="100%" viewBox="0 0 200 200" enable-background="new 0 0 200 200" xml:space="preserve">
<path fill="#FEFFFF" opacity="1.000000" stroke="none" 
	d="
M120.000000,201.000000 
	C80.024696,201.000000 40.549400,201.000000 1.037050,201.000000 
	C1.037050,134.399734 1.037050,67.799454 1.037050,1.099581 
	C67.558464,1.099581 134.117126,1.099581 200.837891,1.099581 
	C200.837891,67.666351 200.837891,134.333145 200.837891,201.000000 
	C174.133072,201.000000 147.316528,201.000000 120.000000,201.000000 
M41.889320,100.926758 
	C41.675491,100.730774 41.461662,100.534790 41.511345,99.712204 
	C43.609859,94.725189 46.301983,89.877083 47.517319,84.683403 
	C48.009590,82.579681 45.795631,78.313255 43.871368,77.610825 
	C42.009090,76.931015 37.809391,78.869469 36.580109,80.858948 
	C28.984304,93.152008 28.226507,106.887512 29.567175,120.844734 
	C29.673309,121.949677 31.472889,123.839287 32.233032,123.722420 
	C33.524052,123.523926 34.989071,122.235184 35.700306,121.009636 
	C36.761066,119.181801 37.230724,117.010933 38.445099,115.005280 
	C38.770645,115.056366 39.098179,115.080627 39.480679,115.888451 
	C40.895042,124.204369 46.250069,126.118721 55.404079,121.382538 
	C59.524620,125.455406 63.600975,124.527802 67.526772,120.546234 
	C70.818512,125.323807 74.519150,124.485382 78.250969,121.535873 
	C82.721214,125.258575 83.847336,124.797874 85.783516,119.306641 
	C87.089775,115.601974 88.895676,112.073479 90.478065,108.466171 
	C92.618759,116.184959 92.977737,116.503174 100.675446,117.036514 
	C103.140434,125.340103 105.951172,126.070831 111.969383,119.972672 
	C115.566223,125.058044 116.912010,125.245689 124.027023,121.653885 
	C128.423340,125.222145 129.569763,124.799049 131.473648,119.507774 
	C132.790924,115.846771 134.544846,112.342896 136.103668,108.768814 
	C136.511673,108.955574 136.919662,109.142326 137.327652,109.329086 
	C137.116135,111.938454 136.854813,114.544930 136.703278,117.157776 
	C136.369431,122.914253 139.923950,125.456406 145.361633,123.323334 
	C146.740417,122.782463 148.015366,121.976822 149.444855,121.237587 
	C153.654968,125.603111 157.703262,124.364655 161.622650,120.560509 
	C164.608124,124.712685 167.982071,125.024445 171.535660,121.871956 
	C174.201035,119.507416 177.828400,117.388634 175.484390,112.182732 
	C172.640762,114.558266 170.251419,116.554291 167.862076,118.550316 
	C167.401978,118.275337 166.941879,118.000359 166.481781,117.725388 
	C166.992630,114.034454 167.613754,110.353714 167.956055,106.647217 
	C168.080154,105.303436 167.915619,102.946724 167.237000,102.677025 
	C163.190186,101.068672 158.622498,98.741760 154.958664,102.831192 
	C152.289673,105.810234 150.207855,109.492790 148.597015,113.181679 
	C147.472672,115.756432 146.950470,118.198280 142.686188,117.949188 
	C143.299164,114.203690 144.093796,110.685127 144.371170,107.126251 
	C144.524933,105.153519 143.814056,103.113411 143.492889,101.103661 
	C141.191422,101.603622 138.553940,101.574097 136.687012,102.758812 
	C134.966751,103.850456 134.074295,106.246590 132.817200,108.068115 
	C132.307587,107.610245 131.797958,107.152382 131.288345,106.694511 
	C131.582397,104.765114 131.876450,102.835724 132.170319,100.907562 
	C128.218903,100.050888 126.355904,101.498749 125.712051,104.623466 
	C125.141693,107.391502 124.712433,110.188751 124.229019,112.974518 
	C123.687439,116.095390 122.027290,117.892883 117.706543,117.986908 
	C118.790627,112.158318 119.798714,106.738312 120.812225,101.289162 
	C116.464897,99.605499 115.254753,101.848579 114.299622,104.870102 
	C112.968483,109.081100 112.181091,113.683578 106.930954,115.875000 
	C107.736488,110.929512 108.542023,105.984024 109.358910,100.968864 
	C100.554115,99.056664 104.279984,109.170242 98.955223,110.999557 
	C98.743454,109.558304 98.623039,108.656784 98.476784,107.759468 
	C98.106361,105.486839 97.724342,103.216103 97.346962,100.944603 
	C94.703941,101.924561 91.958580,102.701920 89.458580,103.964966 
	C88.089417,104.656693 87.134712,106.168755 84.988808,108.315704 
	C85.639931,104.727715 85.985786,102.821877 86.339249,100.874115 
	C82.367737,100.128235 80.505775,101.544846 79.886696,104.695671 
	C79.373650,107.306831 78.858299,109.922859 78.501900,112.558090 
	C78.071693,115.738968 76.506622,117.631950 72.344986,118.112968 
	C72.925308,114.013611 73.565086,110.318451 73.913078,106.596024 
	C74.037514,105.264954 73.939491,103.263786 73.114716,102.604210 
	C69.272049,99.531181 64.008850,99.426743 60.500423,103.203354 
	C57.708820,106.208351 56.382187,110.535774 54.150845,114.117676 
	C53.184505,115.668907 51.785473,117.340637 50.191635,117.976112 
	C49.097942,118.412186 47.329681,117.156410 45.355644,116.484123 
	C51.603668,110.926208 53.218700,107.073784 51.178604,103.483543 
	C49.020054,99.684822 45.800053,100.257881 41.889320,100.926758 
M18.217855,111.889473 
	C18.604904,110.249245 19.835365,107.966957 19.186853,107.115051 
	C18.140820,105.740952 15.259521,104.193405 14.235995,104.741341 
	C12.706250,105.560265 11.046509,108.343071 11.353852,109.917191 
	C11.952057,112.981010 14.646070,113.693199 18.217855,111.889473 
M185.839737,112.903069 
	C187.521881,111.901909 189.528549,111.179985 190.739136,109.773071 
	C191.283936,109.139938 190.653244,106.782967 189.833115,105.830620 
	C187.907867,103.594986 185.330551,103.521294 183.422745,105.810310 
	C181.110718,108.584267 182.106064,110.986298 185.839737,112.903069 
z"/>
<path fill="#0EA1C2" opacity="1.000000" stroke="none" 
	d="
M37.951878,114.986015 
	C37.230724,117.010933 36.761066,119.181801 35.700306,121.009636 
	C34.989071,122.235184 33.524052,123.523926 32.233032,123.722420 
	C31.472889,123.839287 29.673309,121.949677 29.567175,120.844734 
	C28.226507,106.887512 28.984304,93.152008 36.580109,80.858948 
	C37.809391,78.869469 42.009090,76.931015 43.871368,77.610825 
	C45.795631,78.313255 48.009590,82.579681 47.517319,84.683403 
	C46.301983,89.877083 43.609859,94.725189 41.141090,100.188744 
	C40.637005,101.016472 40.503174,101.367661 40.369339,101.718842 
	C41.068382,101.671883 41.767429,101.624924 42.466473,101.577957 
	C45.800053,100.257881 49.020054,99.684822 51.178604,103.483543 
	C53.218700,107.073784 51.603668,110.926208 45.355644,116.484123 
	C47.329681,117.156410 49.097942,118.412186 50.191635,117.976112 
	C51.785473,117.340637 53.184505,115.668907 54.150845,114.117676 
	C56.382187,110.535774 57.708820,106.208351 60.500423,103.203354 
	C64.008850,99.426743 69.272049,99.531181 73.114716,102.604210 
	C73.939491,103.263786 74.037514,105.264954 73.913078,106.596024 
	C73.565086,110.318451 72.925308,114.013611 72.344986,118.112968 
	C76.506622,117.631950 78.071693,115.738968 78.501900,112.558090 
	C78.858299,109.922859 79.373650,107.306831 79.886696,104.695671 
	C80.505775,101.544846 82.367737,100.128235 86.339249,100.874115 
	C85.985786,102.821877 85.639931,104.727715 84.988808,108.315704 
	C87.134712,106.168755 88.089417,104.656693 89.458580,103.964966 
	C91.958580,102.701920 94.703941,101.924561 97.346962,100.944603 
	C97.724342,103.216103 98.106361,105.486839 98.476784,107.759468 
	C98.623039,108.656784 98.743454,109.558304 98.955223,110.999557 
	C104.279984,109.170242 100.554115,99.056664 109.358910,100.968864 
	C108.542023,105.984024 107.736488,110.929512 106.930954,115.875000 
	C112.181091,113.683578 112.968483,109.081100 114.299622,104.870102 
	C115.254753,101.848579 116.464897,99.605499 120.812225,101.289162 
	C119.798714,106.738312 118.790627,112.158318 117.706543,117.986908 
	C122.027290,117.892883 123.687439,116.095390 124.229019,112.974518 
	C124.712433,110.188751 125.141693,107.391502 125.712051,104.623466 
	C126.355904,101.498749 128.218903,100.050888 132.170319,100.907562 
	C131.876450,102.835724 131.582397,104.765114 131.288345,106.694511 
	C131.797958,107.152382 132.307587,107.610245 132.817200,108.068115 
	C134.074295,106.246590 134.966751,103.850456 136.687012,102.758812 
	C138.553940,101.574097 141.191422,101.603622 143.492889,101.103668 
	C143.814056,103.113411 144.524933,105.153519 144.371170,107.126251 
	C144.093796,110.685127 143.299164,114.203690 142.686188,117.949188 
	C146.950470,118.198280 147.472672,115.756432 148.597015,113.181679 
	C150.207855,109.492790 152.289673,105.810234 154.958664,102.831192 
	C158.622498,98.741760 163.190186,101.068672 167.237000,102.677025 
	C167.915619,102.946724 168.080154,105.303436 167.956055,106.647217 
	C167.613754,110.353714 166.992630,114.034454 166.481781,117.725388 
	C166.941879,118.000359 167.401978,118.275337 167.862076,118.550316 
	C170.251419,116.554291 172.640762,114.558266 175.484390,112.182732 
	C177.828400,117.388634 174.201035,119.507416 171.535660,121.871956 
	C167.982071,125.024445 164.608124,124.712685 161.622650,120.560509 
	C157.703262,124.364655 153.654968,125.603111 149.444855,121.237587 
	C148.015366,121.976822 146.740417,122.782463 145.361633,123.323334 
	C139.923950,125.456406 136.369431,122.914253 136.703278,117.157776 
	C136.854813,114.544930 137.116135,111.938454 137.327652,109.329086 
	C136.919662,109.142326 136.511673,108.955574 136.103668,108.768814 
	C134.544846,112.342896 132.790924,115.846771 131.473648,119.507774 
	C129.569763,124.799049 128.423340,125.222145 124.027023,121.653885 
	C116.912010,125.245689 115.566223,125.058044 111.969383,119.972672 
	C105.951172,126.070831 103.140434,125.340103 100.675446,117.036514 
	C92.977737,116.503174 92.618759,116.184959 90.478065,108.466171 
	C88.895676,112.073479 87.089775,115.601974 85.783516,119.306641 
	C83.847336,124.797874 82.721214,125.258575 78.250969,121.535873 
	C74.519150,124.485382 70.818512,125.323807 67.526772,120.546234 
	C63.600975,124.527802 59.524620,125.455406 55.404079,121.382538 
	C46.250069,126.118721 40.895042,124.204369 39.710938,115.215309 
	C41.508953,113.375618 43.298058,112.402122 44.553223,110.962944 
	C45.203190,110.217705 44.907017,108.647293 45.038292,107.449677 
	C43.910538,107.692047 42.259682,107.553299 41.753292,108.248360 
	C40.245026,110.318573 39.186264,112.716270 37.951878,114.986015 
M60.442036,116.139580 
	C61.234119,117.029678 62.123730,118.709785 62.795700,118.626823 
	C63.833324,118.498741 65.258652,117.331604 65.576584,116.311325 
	C66.673431,112.791435 67.361862,109.144272 68.388794,104.765450 
	C62.394535,106.798798 60.957779,110.781578 60.442036,116.139580 
M161.911209,106.114029 
	C158.053101,105.905762 154.969955,109.199821 154.833420,114.240822 
	C154.793304,115.721848 155.995560,117.236519 156.628418,118.735771 
	C157.751343,117.687523 159.417755,116.836807 159.885315,115.550354 
	C160.892838,112.778366 161.284042,109.782364 161.911209,106.114029 
M37.464573,91.026901 
	C36.945026,93.738579 36.425484,96.450256 35.797279,99.729073 
	C42.024597,93.932114 44.254677,86.399757 40.764946,81.624023 
	C39.630669,84.820595 38.665760,87.539871 37.464573,91.026901 
z"/>
<path fill="#E98E19" opacity="1.000000" stroke="none" 
	d="
M17.903969,112.113449 
	C14.646070,113.693199 11.952057,112.981010 11.353852,109.917191 
	C11.046509,108.343071 12.706250,105.560265 14.235995,104.741341 
	C15.259521,104.193405 18.140820,105.740952 19.186853,107.115051 
	C19.835365,107.966957 18.604904,110.249245 17.903969,112.113449 
z"/>
<path fill="#E98E19" opacity="1.000000" stroke="none" 
	d="
M185.464722,112.801483 
	C182.106064,110.986298 181.110718,108.584267 183.422745,105.810310 
	C185.330551,103.521294 187.907867,103.594986 189.833115,105.830620 
	C190.653244,106.782967 191.283936,109.139938 190.739136,109.773071 
	C189.528549,111.179985 187.521881,111.901909 185.464722,112.801483 
z"/>
<path fill="#D6EFF5" opacity="1.000000" stroke="none" 
	d="
M38.198490,114.995651 
	C39.186264,112.716270 40.245026,110.318573 41.753292,108.248360 
	C42.259682,107.553299 43.910538,107.692047 45.038292,107.449677 
	C44.907017,108.647293 45.203190,110.217705 44.553223,110.962944 
	C43.298058,112.402122 41.508953,113.375618 39.684452,114.810120 
	C39.098179,115.080627 38.770645,115.056366 38.198490,114.995651 
z"/>
<path fill="#E6F5F9" opacity="1.000000" stroke="none" 
	d="
M60.430141,115.768806 
	C60.957779,110.781578 62.394535,106.798798 68.388794,104.765450 
	C67.361862,109.144272 66.673431,112.791435 65.576584,116.311325 
	C65.258652,117.331604 63.833324,118.498741 62.795700,118.626823 
	C62.123730,118.709785 61.234119,117.029678 60.430141,115.768806 
z"/>
<path fill="#EDF8FB" opacity="1.000000" stroke="none" 
	d="
M161.919342,106.496033 
	C161.284042,109.782364 160.892838,112.778366 159.885315,115.550354 
	C159.417755,116.836807 157.751343,117.687523 156.628418,118.735771 
	C155.995560,117.236519 154.793304,115.721848 154.833420,114.240822 
	C154.969955,109.199821 158.053101,105.905762 161.919342,106.496033 
z"/>
<path fill="#DFF2F7" opacity="1.000000" stroke="none" 
	d="
M37.582710,90.643021 
	C38.665760,87.539871 39.630669,84.820595 40.764946,81.624023 
	C44.254677,86.399757 42.024597,93.932114 35.797279,99.729073 
	C36.425484,96.450256 36.945026,93.738579 37.582710,90.643021 
z"/>
<path fill="#FEFFFF" opacity="1.000000" stroke="none" 
	d="
M42.177895,101.252357 
	C41.767429,101.624924 41.068382,101.671883 40.369339,101.718842 
	C40.503174,101.367661 40.637005,101.016472 41.009335,100.502045 
	C41.461662,100.534790 41.675491,100.730774 42.177895,101.252357 
z"/>
</svg>